<?xml version="1.0" encoding="iso-8859-1"?>
<!-- Generator: Adobe Illustrator 19.0.0, SVG Export Plug-In . SVG Version: 6.00 Build 0)  -->
<svg version="1.1" id="Layer_1" xmlns="http://www.w3.org/2000/svg" xmlns:xlink="http://www.w3.org/1999/xlink" x="0px" y="0px"
	 viewBox="0 0 505.285 505.285" style="enable-background:new 0 0 505.285 505.285;" xml:space="preserve">
<g transform="translate(1 1)">
	<g>
		<g>
			<path d="M138.331,287.734c-4.197-1.679-9.233-0.839-11.751,3.357c-11.751,20.144-17.626,43.646-17.626,67.148
				c0,15.948,2.518,31.895,8.393,47.003c0.839,3.357,4.197,5.875,7.554,5.875c0.839,0,2.518,0,3.357,0
				c4.197-1.679,6.715-6.715,5.036-10.911c-5.036-13.43-7.554-26.859-7.554-41.128c0-20.984,5.036-41.128,15.948-59.593
				C143.367,295.288,142.528,290.252,138.331,287.734z"/>
			<path d="M181.977,392.652c-4.197-13.43-5.875-26.859-5.875-41.967c0-4.197,0-9.233,0-14.269c1.679-13.43,5.875-26.02,13.43-38.61
				c2.518-4.197,1.679-9.233-2.518-11.751c-4.197-2.518-9.233-1.679-11.751,2.518c-8.393,14.269-14.269,29.377-15.948,45.325
				c-0.839,5.036-0.839,10.911-0.839,15.948c0,15.948,2.518,31.895,6.715,46.164c8.393,26.859,23.502,51.2,46.164,71.344
				c1.679,1.679,4.197,2.518,5.875,2.518c2.518,0,5.036-0.839,6.715-2.518c2.518-3.357,2.518-8.393-0.839-11.751
				C202.961,437.138,189.531,416.154,181.977,392.652z"/>
			<path d="M387.616,315.433c-1.679-4.197-6.715-6.715-10.911-5.036s-6.715,6.715-5.036,10.911c4.197,12.59,5.875,25.18,5.875,37.77
				c0,11.751-1.679,22.662-5.036,33.574c-0.839,4.197,1.679,8.393,5.875,10.072c0.839,0,1.679,0,2.518,0
				c3.357,0,6.715-1.679,8.393-6.715c3.357-12.59,5.036-25.18,5.036-37.771C394.331,343.131,391.813,328.862,387.616,315.433z"/>
			<path d="M388.456,248.285l-48.682-33.574c-26.02-18.466-36.931-36.931-37.771-63.79c0-35.252,37.771-77.22,73.862-117.508
				c5.875-5.875,11.751-12.59,16.787-18.466c2.518-3.357,2.518-6.715,0.839-10.072c-2.518-3.357-5.875-5.036-9.233-4.197
				c-48.031,8.947-79.681,31.632-100.585,57.828c-2.237-15.767-5.638-29.348-10.208-40.202l-3.357-7.554
				C266.751,3.197,260.036-1,252.482-1c-7.554,0-15.108,5.036-17.626,11.751l-3.357,7.554c-4.732,11.83-8.208,25.755-10.439,42.048
				C200.178,33.381,168.182,9.835,119.026,0.679c-3.357-0.839-7.554,0.839-9.233,4.197c-1.679,2.518-0.839,6.715,0.839,10.072
				c5.875,5.875,10.911,12.59,16.787,18.466c36.092,40.289,73.862,83.095,73.862,118.348c-0.839,26.859-11.751,45.325-37.771,63.79
				l-48.682,33.574c-35.252,25.18-56.236,66.308-56.236,109.954c0,55.397,33.574,104.918,85.613,126.741
				c35.816,12.494,72.458,18.368,109.106,18.457c0.003,0.003,0.005,0.005,0.008,0.008c0.014-0.002,0.027-0.005,0.041-0.008
				c0.266,0.001,0.532,0.008,0.799,0.008c36.092,0,72.184-6.715,105.757-20.144c51.2-20.984,84.774-70.505,84.774-125.902
				C444.692,315.433,423.708,273.466,388.456,248.285z M235.695,82.095c1.679-23.502,5.036-41.967,10.911-55.397l3.357-7.554
				c0-0.839,0.839-0.839,1.679-0.839s1.679,0,1.679,0.839l3.357,7.554c5.875,13.43,9.233,32.734,10.911,55.397
				c-7.554,13.43-12.59,26.859-15.948,39.449C248.285,108.954,243.249,95.525,235.695,82.095z M354.043,469.872
				c-9.371,3.499-18.951,6.464-28.69,8.921c19.078-11.039,35.219-26.445,47.155-45.013c2.518-4.197,1.679-9.233-2.518-11.751
				s-9.233-1.679-11.751,2.518c-13.43,20.984-32.734,36.931-55.397,46.164l-2.518,0.839c-3.208,1.222-6.358,2.443-9.47,3.64
				c17.326-15.802,30.55-33.24,38.847-52.322c9.233-19.305,13.43-40.289,13.43-63.79c0-18.466-3.357-35.252-11.751-52.039
				c-1.679-4.197-6.715-5.875-10.911-4.197c-4.197,1.679-5.875,6.715-4.197,10.911c6.715,13.43,10.072,28.538,10.072,44.485
				c0,20.984-4.197,39.449-11.751,57.075c-7.554,17.626-19.305,33.574-35.252,47.843c-4.116,3.742-8.585,7.48-13.369,11.147
				c1.584-12.069,2.458-27.66,2.458-46.4c0-5.036-3.357-8.393-8.393-8.393c-5.036,0-8.393,3.357-8.393,8.393
				c0,34.698-2.984,50.626-5.003,57.527c-14.391-3.088-28.405-8.902-43.679-14.72l-2.518-0.839
				c-16.787-6.715-31.895-16.787-43.646-30.216c-3.357-3.357-8.393-4.197-11.751-0.839c-3.357,3.357-4.197,8.393-0.839,11.751
				c10.027,11.28,21.927,20.686,35.347,27.874c-9.867-2.389-19.704-5.234-29.472-8.569c-45.325-18.466-74.702-62.112-74.702-110.793
				c0-37.77,18.466-73.862,48.682-96.525l48.682-33.574c31.056-20.984,44.485-43.646,45.325-77.22
				c0-41.967-37.77-85.613-75.541-127.58c44.054,15.34,68.938,44.69,82.857,73.709c7.449,15.707,11.811,31.631,14.358,45.076
				c2.554,14.252,2.897,25.701,2.667,31.458c0,0.256,0.018,0.505,0.039,0.753c-0.016,0.189-0.018,0.385-0.025,0.579
				c-6.643,17.281-15.693,29.287-29.392,38.956l-48.682,33.574c-7.554,5.875-14.269,11.751-20.144,18.466
				c-2.518,3.357-2.518,8.393,0.839,11.751c1.679,1.679,4.197,2.518,5.875,2.518c2.518,0,4.197-0.839,5.875-2.518
				c5.036-5.875,10.911-11.751,17.626-15.948l48.682-33.574c3.722-2.606,7.183-5.389,10.419-8.37
				c-4.899,9.546-10.893,15.134-15.455,19.281l-1.679,1.679c-5.875,5.875-12.59,12.59-19.305,19.305
				c-2.518,3.357-2.518,8.393,0.839,11.751c1.679,1.679,4.197,2.518,5.875,2.518c2.518,0,5.036-0.839,5.036-2.518
				c5.875-6.715,12.59-12.59,18.466-18.466l1.679-1.679c5.391-4.561,12.828-11.385,18.976-22.984
				c1.915,22.625,3.686,46.079,3.686,55.718c0,5.036,3.357,8.393,8.393,8.393c5.036,0,8.393-3.357,8.393-8.393
				c0-6.437-0.731-18.354-1.76-32.041c3.239,4.246,6.23,7.338,8.475,9.379c5.875,5.875,12.59,11.751,18.466,18.466
				c1.679,1.679,3.357,2.518,5.875,2.518c1.679,0,4.197-0.839,5.875-2.518c3.357-3.357,4.197-8.393,0.839-11.751
				c-5.875-6.715-13.43-13.429-19.305-19.305c-4.342-4.342-12.285-13.412-18.258-28.776c3.317,3.082,6.873,5.95,10.704,8.632
				l48.682,33.574c10.911,7.554,20.144,16.787,27.698,27.698c1.679,2.518,4.197,3.357,6.715,3.357c1.679,0,3.357-0.839,5.875-1.679
				c3.357-2.518,4.197-7.554,1.679-11.751c-9.233-12.59-19.305-22.662-31.895-31.895l-48.682-33.574
				c-13.096-8.474-21.944-20.496-28.502-36.69c-0.016-0.914-0.036-1.824-0.036-2.759c0-1.377-0.259-2.622-0.727-3.714
				c0.624-14.243,4.437-51.363,25.068-85.256c0.839-1.679,0.839-3.357,0.839-5.036c-0.013-0.201-0.029-0.397-0.043-0.597
				c14.915-23.054,38.049-44.625,73.905-57.317c-36.931,41.967-75.541,85.613-75.541,127.58
				c0.839,32.734,15.108,56.236,45.325,77.22l48.682,33.574c31.056,22.662,49.521,58.754,49.521,96.525
				C427.905,407.761,398.528,451.407,354.043,469.872z"/>
		</g>
	</g>
</g>
<g>
</g>
<g>
</g>
<g>
</g>
<g>
</g>
<g>
</g>
<g>
</g>
<g>
</g>
<g>
</g>
<g>
</g>
<g>
</g>
<g>
</g>
<g>
</g>
<g>
</g>
<g>
</g>
<g>
</g>
</svg>
